# Blender v2.82 (sub 7) OBJ File: 'secondblock.blend'
# www.blender.org
mtllib dome.mtl
o Dome
v 0.167891 3.307883 -0.562744
v 0.216485 3.386459 -0.540785
v 0.322119 3.307970 -0.488347
v 0.266479 3.489401 -0.487533
v 0.390507 3.409666 -0.422408
v 0.502456 3.307738 -0.314814
v 0.504281 3.472539 -0.255714
v 0.415536 3.523378 -0.353375
v 0.468892 3.605452 -0.190395
v 0.393206 3.638418 -0.285286
v 0.317453 3.650537 -0.348626
v 0.303827 3.585620 -0.416745
v 0.579717 3.307812 -0.150561
v 0.565207 3.441027 -0.135601
v 0.605158 3.308160 -0.002106
v 0.588347 3.429745 -0.003929
v 0.552780 3.519493 -0.004953
v 0.527388 3.561467 -0.087554
v 0.562356 3.440738 0.127843
v 0.527287 3.561466 0.077331
v 0.464651 3.605452 0.180346
v 0.497590 3.473163 0.248494
v 0.576690 3.307950 0.146357
v 0.495619 3.307599 0.311391
v 0.380752 3.409729 0.418395
v 0.317302 3.308046 0.486511
v 0.255530 3.490389 0.483144
v 0.208927 3.388472 0.537808
v 0.163811 3.308162 0.561213
v 0.405461 3.523466 0.347247
v 0.290645 3.586154 0.411248
v 0.305132 3.650724 0.341940
v 0.383759 3.638292 0.277404
v 0.312245 3.739417 0.214979
v 0.232453 3.719303 0.328775
v 0.392451 3.716033 0.099414
v 0.202793 3.821607 0.165251
v 0.272576 3.817850 -0.003629
v 0.089821 3.890212 -0.001110
v 0.207732 3.821607 -0.170564
v 0.392451 3.715924 -0.109400
v 0.317865 3.739551 -0.222866
v 0.135171 3.792089 -0.301253
v 0.244091 3.720378 -0.334933
v 0.174231 3.655451 -0.433887
v 0.116503 3.556898 -0.514005
v 0.044622 3.725539 -0.408864
v -0.071585 3.792542 -0.347585
v 0.018986 3.843562 -0.256503
v -0.073993 3.869690 -0.213453
v -0.165198 3.846010 -0.254820
v -0.187458 3.725720 -0.406268
v -0.071215 3.618584 -0.506229
v -0.260983 3.557287 -0.510626
v -0.073786 3.454453 -0.577486
v -0.226789 3.437494 -0.567661
v -0.413223 3.490140 -0.484127
v -0.365761 3.388451 -0.538433
v -0.319768 3.308181 -0.561473
v -0.216664 3.308040 -0.590723
v -0.076281 3.308249 -0.602151
v -0.317884 3.656276 -0.429618
v -0.280583 3.792387 -0.297348
v -0.390035 3.720604 -0.329712
v -0.463689 3.651674 -0.343282
v -0.448966 3.585196 -0.412494
v 0.078621 3.437274 -0.569772
v 0.064318 3.308045 -0.591703
v -0.468894 3.739417 -0.215528
v -0.543170 3.638419 -0.279102
v -0.625003 3.605452 -0.182436
v -0.548812 3.716033 -0.099844
v -0.357594 3.821607 -0.165031
v -0.222483 3.878793 -0.133448
v -0.075521 3.901290 -0.123238
v 0.072530 3.878793 -0.136363
v -0.076506 3.915098 0.000482
v 0.069203 3.878798 0.134301
v 0.124472 3.792395 0.297023
v 0.011082 3.846017 0.255325
v -0.079605 3.869695 0.214173
v -0.077277 3.901294 0.124292
v -0.084559 3.792542 0.347246
v -0.172023 3.843562 0.257457
v -0.287014 3.792089 0.302704
v -0.199959 3.722251 0.408860
v 0.029440 3.725720 0.405150
v -0.085812 3.617037 0.505523
v -0.271812 3.554436 0.514013
v -0.327847 3.655451 0.434601
v -0.421033 3.489657 0.487856
v -0.456251 3.586226 0.417953
v -0.469072 3.651514 0.350170
v -0.395694 3.720377 0.336485
v -0.082360 3.453283 0.577146
v -0.233814 3.434972 0.569829
v -0.079047 3.308236 0.602151
v -0.219287 3.308041 0.591853
v -0.322820 3.307866 0.562910
v -0.371414 3.387396 0.540952
v 0.102926 3.557287 0.509492
v 0.069875 3.437175 0.567001
v 0.060902 3.308032 0.590544
v 0.159327 3.656265 0.428276
v -0.477047 3.307968 0.488514
v -0.544794 3.409832 0.422842
v -0.657139 3.307721 0.315083
v -0.659461 3.473213 0.255776
v -0.569173 3.523765 0.354079
v -0.625003 3.605452 0.190070
v -0.545474 3.638418 0.286559
v -0.735642 3.307812 0.150313
v -0.722116 3.441027 0.134945
v -0.761835 3.308160 0.001546
v -0.746132 3.429745 0.002907
v -0.710760 3.519493 0.003850
v -0.685451 3.561466 0.086417
v -0.470610 3.739551 0.223941
v -0.359497 3.821607 0.172047
v -0.548812 3.715924 0.108971
v -0.428313 3.817850 0.003460
v -0.243278 3.890212 0.001889
v -0.225060 3.878793 0.137528
v -0.624137 3.655617 0.004564
v -0.685451 3.561467 -0.078510
v -0.722115 3.440738 -0.129686
v -0.657348 3.473275 -0.250337
v -0.563972 3.523842 -0.348571
v -0.538567 3.409859 -0.419428
v -0.654115 3.307604 -0.312708
v -0.473684 3.308062 -0.486948
v -0.735532 3.307949 -0.147818
v 0.465580 3.655592 -0.005906
v 0.060902 3.308032 0.590544
v -0.077464 3.308776 0.000083
v 0.163811 3.308162 0.561213
v -0.079047 3.308236 0.602151
v -0.219287 3.308041 0.591853
v -0.322820 3.307866 0.562910
v -0.477047 3.307968 0.488514
v -0.657139 3.307721 0.315083
v -0.735642 3.307812 0.150313
v -0.761835 3.308160 0.001546
v -0.735532 3.307949 -0.147818
v -0.654115 3.307604 -0.312708
v -0.473684 3.308062 -0.486948
v -0.319768 3.308181 -0.561473
v -0.216664 3.308040 -0.590723
v -0.076281 3.308249 -0.602151
v 0.064318 3.308045 -0.591703
v 0.167891 3.307883 -0.562744
v 0.322119 3.307970 -0.488347
v 0.502456 3.307738 -0.314814
v 0.579717 3.307812 -0.150561
v 0.605158 3.308160 -0.002106
v 0.576690 3.307950 0.146357
v 0.495619 3.307599 0.311391
v 0.317302 3.308046 0.486511
vt 0.599673 0.570109
vt 0.617549 0.542144
vt 0.665579 0.577044
vt 0.646768 0.510508
vt 0.703230 0.541594
vt 0.749221 0.569132
vt 0.760036 0.507835
vt 0.715418 0.502301
vt 0.761345 0.463595
vt 0.720848 0.464681
vt 0.690724 0.464128
vt 0.672419 0.484187
vt 0.815821 0.550386
vt 0.808831 0.499081
vt 0.877662 0.512832
vt 0.857228 0.476579
vt 0.836252 0.452760
vt 0.802653 0.459311
vt 0.892417 0.431115
vt 0.846724 0.420447
vt 0.854047 0.377702
vt 0.904584 0.375813
vt 0.940924 0.453804
vt 0.974101 0.366952
vt 0.937265 0.296320
vt 0.973852 0.251344
vt 0.901279 0.249331
vt 0.927144 0.211729
vt 0.946945 0.177676
vt 0.896595 0.323396
vt 0.872650 0.281184
vt 0.851055 0.302845
vt 0.854105 0.334772
vt 0.813241 0.333331
vt 0.823427 0.292411
vt 0.806101 0.375780
vt 0.773713 0.323092
vt 0.752648 0.371122
vt 0.714930 0.337282
vt 0.704977 0.394097
vt 0.759270 0.421360
vt 0.717645 0.429285
vt 0.664030 0.410642
vt 0.678657 0.441345
vt 0.641996 0.458549
vt 0.607288 0.481700
vt 0.621702 0.423967
vt 0.612637 0.385847
vt 0.650850 0.379123
vt 0.641801 0.354182
vt 0.615247 0.348126
vt 0.571591 0.382646
vt 0.567453 0.437237
vt 0.511705 0.407934
vt 0.531494 0.481869
vt 0.486071 0.447523
vt 0.467282 0.372594
vt 0.442355 0.410953
vt 0.422957 0.446074
vt 0.452344 0.486490
vt 0.498603 0.526991
vt 0.530432 0.367819
vt 0.579836 0.338833
vt 0.544292 0.327854
vt 0.516332 0.318037
vt 0.494846 0.340309
vt 0.576466 0.515574
vt 0.551967 0.554651
vt 0.553079 0.286368
vt 0.512088 0.286181
vt 0.510322 0.242652
vt 0.558741 0.242686
vt 0.593075 0.296001
vt 0.628949 0.312660
vt 0.659890 0.334798
vt 0.685142 0.362122
vt 0.683593 0.309268
vt 0.738235 0.306108
vt 0.787877 0.280532
vt 0.752522 0.270656
vt 0.725819 0.264015
vt 0.707460 0.283774
vt 0.755914 0.231498
vt 0.716950 0.237982
vt 0.703807 0.203806
vt 0.748111 0.190175
vt 0.797373 0.236057
vt 0.804208 0.179030
vt 0.766503 0.127503
vt 0.727999 0.151368
vt 0.725772 0.088624
vt 0.696349 0.119659
vt 0.676246 0.142936
vt 0.688932 0.169648
vt 0.843832 0.135792
vt 0.802611 0.097032
vt 0.880681 0.095460
vt 0.834531 0.059726
vt 0.792692 0.037291
vt 0.760946 0.059656
vt 0.858324 0.212407
vt 0.885645 0.173730
vt 0.920548 0.138071
vt 0.838170 0.252378
vt 0.717808 0.017572
vt 0.676560 0.056830
vt 0.605270 0.025429
vt 0.599860 0.093819
vt 0.652459 0.098987
vt 0.600215 0.144270
vt 0.643871 0.141878
vt 0.522655 0.059483
vt 0.545069 0.107449
vt 0.462083 0.108558
vt 0.498004 0.141346
vt 0.522567 0.163739
vt 0.556593 0.153048
vt 0.648051 0.182590
vt 0.661619 0.221326
vt 0.604780 0.192338
vt 0.613214 0.245966
vt 0.652013 0.280969
vt 0.681988 0.255268
vt 0.559731 0.197536
vt 0.515042 0.198536
vt 0.468356 0.191158
vt 0.460059 0.246999
vt 0.470111 0.298763
vt 0.430437 0.326840
vt 0.392305 0.258672
vt 0.394960 0.371939
vt 0.418713 0.173330
vt 0.802908 0.418515
vt 0.280549 0.449968
vt 0.280549 0.718425
vt 0.238432 0.454292
vt 0.335474 0.456546
vt 0.388415 0.472591
vt 0.425246 0.493474
vt 0.477180 0.538112
vt 0.530328 0.628144
vt 0.545748 0.706420
vt 0.542427 0.773351
vt 0.518575 0.835975
vt 0.473003 0.901459
vt 0.388160 0.962549
vt 0.322666 0.982558
vt 0.280549 0.986883
vt 0.225623 0.980304
vt 0.172682 0.964259
vt 0.135852 0.943377
vt 0.083917 0.898738
vt 0.030770 0.808706
vt 0.015350 0.730430
vt 0.018670 0.663499
vt 0.042522 0.600875
vt 0.088094 0.535391
vt 0.172938 0.474301
vn 0.3122 0.0813 -0.9465
vn 0.3934 0.1729 -0.9029
vn 0.5833 0.0909 -0.8071
vn 0.4528 0.3222 -0.8314
vn 0.6727 0.1632 -0.7217
vn 0.8201 0.1491 -0.5525
vn 0.8381 0.2769 -0.4699
vn 0.7099 0.3453 -0.6139
vn 0.7748 0.5472 -0.3167
vn 0.6704 0.5815 -0.4609
vn 0.5298 0.6024 -0.5969
vn 0.5027 0.4625 -0.7303
vn 0.9401 0.1363 -0.3125
vn 0.9283 0.2456 -0.2791
vn 0.9910 0.1334 0.0116
vn 0.9729 0.2311 0.0100
vn 0.9085 0.4178 0.0049
vn 0.8523 0.4971 -0.1625
vn 0.9212 0.2495 0.2985
vn 0.8488 0.4966 0.1816
vn 0.7682 0.5446 0.3366
vn 0.8277 0.2862 0.4826
vn 0.9318 0.1466 0.3322
vn 0.8124 0.1678 0.5584
vn 0.6721 0.1883 0.7161
vn 0.5888 0.1238 0.7988
vn 0.4528 0.3423 0.8233
vn 0.3947 0.1983 0.8972
vn 0.3184 0.1048 0.9421
vn 0.7018 0.3571 0.6164
vn 0.4994 0.4754 0.7243
vn 0.5257 0.6019 0.6011
vn 0.6618 0.5782 0.4772
vn 0.5406 0.7656 0.3486
vn 0.4094 0.7142 0.5677
vn 0.6475 0.7444 0.1634
vn 0.4114 0.8716 0.2665
vn 0.4968 0.8679 0.0050
vn 0.2772 0.9608 0.0034
vn 0.4095 0.8760 -0.2546
vn 0.6463 0.7481 -0.1506
vn 0.5424 0.7733 -0.3284
vn 0.2739 0.8142 -0.5120
vn 0.4051 0.7227 -0.5601
vn 0.2838 0.5906 -0.7554
vn 0.2099 0.4514 -0.8673
vn 0.1271 0.6828 -0.7194
vn -0.0044 0.7750 -0.6319
vn 0.1424 0.8792 -0.4546
vn 0.0031 0.9225 -0.3860
vn -0.1503 0.8769 -0.4566
vn -0.1378 0.6814 -0.7188
vn -0.0072 0.5329 -0.8461
vn -0.2161 0.4574 -0.8626
vn -0.0074 0.3090 -0.9510
vn -0.1776 0.2865 -0.9415
vn -0.4520 0.3382 -0.8254
vn -0.3927 0.1929 -0.8992
vn -0.3168 0.0985 -0.9434
vn -0.1552 0.1616 -0.9746
vn -0.0060 0.1655 -0.9862
vn -0.2864 0.5933 -0.7523
vn -0.2807 0.8096 -0.5155
vn -0.4040 0.7224 -0.5612
vn -0.5234 0.6033 -0.6018
vn -0.4981 0.4710 -0.7280
vn 0.1705 0.2767 -0.9457
vn 0.1485 0.1496 -0.9775
vn -0.5360 0.7729 -0.3397
vn -0.6563 0.5854 -0.4761
vn -0.7655 0.5505 -0.3331
vn -0.6395 0.7519 -0.1602
vn -0.4073 0.8744 -0.2639
vn -0.2441 0.9439 -0.2224
vn -0.0019 0.9795 -0.2015
vn 0.2407 0.9453 -0.2201
vn 0.0001 1.0000 0.0001
vn 0.2468 0.9427 0.2244
vn 0.2843 0.8043 0.5218
vn 0.1517 0.8741 0.4615
vn -0.0029 0.9220 0.3872
vn 0.0025 0.9794 0.2017
vn 0.0017 0.7682 0.6402
vn -0.1417 0.8790 0.4552
vn -0.2712 0.8129 0.5154
vn -0.1233 0.6770 0.7256
vn 0.1357 0.6785 0.7220
vn 0.0054 0.5338 0.8456
vn -0.2061 0.4510 0.8684
vn -0.2730 0.5905 0.7595
vn -0.4519 0.3230 0.8315
vn -0.5019 0.4638 0.7300
vn -0.5290 0.6049 0.5953
vn -0.4032 0.7247 0.5588
vn 0.0078 0.3121 0.9500
vn -0.1689 0.2784 0.9455
vn 0.0080 0.1695 0.9855
vn -0.1478 0.1528 0.9771
vn -0.3121 0.0814 0.9465
vn -0.3912 0.1747 0.9036
vn 0.2160 0.4600 0.8612
vn 0.1787 0.2909 0.9399
vn 0.1570 0.1667 0.9734
vn 0.2874 0.5930 0.7522
vn -0.5839 0.0911 0.8067
vn -0.6727 0.1641 0.7215
vn -0.8187 0.1483 0.5548
vn -0.8354 0.2765 0.4750
vn -0.7066 0.3490 0.6155
vn -0.7688 0.5498 0.3267
vn -0.6644 0.5845 0.4658
vn -0.9386 0.1324 0.3187
vn -0.9271 0.2412 0.2870
vn -0.9921 0.1253 -0.0009
vn -0.9743 0.2252 0.0003
vn -0.9091 0.4165 0.0002
vn -0.8514 0.4960 0.1706
vn -0.5381 0.7743 0.3330
vn -0.4068 0.8764 0.2576
vn -0.6406 0.7514 0.1579
vn -0.4931 0.8700 -0.0019
vn -0.2758 0.9612 -0.0024
vn -0.2407 0.9453 0.2201
vn -0.7368 0.6761 -0.0007
vn -0.8508 0.4976 -0.1690
vn -0.9248 0.2450 -0.2911
vn -0.8263 0.2820 -0.4876
vn -0.6974 0.3549 -0.6226
vn -0.6682 0.1836 -0.7210
vn -0.8101 0.1615 -0.5637
vn -0.5850 0.1170 -0.8026
vn -0.9347 0.1388 -0.3274
vn 0.7422 0.6701 0.0034
vn 0.0009 -1.0000 -0.0014
vn 0.0008 -1.0000 -0.0014
vn 0.0007 -1.0000 -0.0013
vn -0.0014 -1.0000 -0.0009
vn 0.0017 -1.0000 -0.0008
vn 0.0018 -1.0000 -0.0009
vn 0.0018 -1.0000 -0.0003
vn 0.0014 -1.0000 -0.0008
vn 0.0012 -1.0000 -0.0013
vn 0.0009 -1.0000 -0.0021
vn 0.0007 -1.0000 0.0023
vn 0.0006 -1.0000 0.0023
vn 0.0013 -1.0000 0.0004
vn -0.0009 -1.0000 0.0013
vn -0.0009 -1.0000 0.0014
vn 0.0015 -1.0000 0.0009
vn -0.0017 -1.0000 0.0008
vn -0.0018 -1.0000 0.0009
vn -0.0016 -1.0000 0.0005
vn -0.0012 -1.0000 0.0010
vn -0.0013 -1.0000 0.0012
vn -0.0009 -1.0000 0.0022
vn -0.0008 -1.0000 -0.0020
vn -0.0006 -1.0000 -0.0023
vn -0.0013 -1.0000 -0.0004
usemtl Default_OBJ.002
s 1
f 1/1/1 2/2/2 3/3/3
f 4/4/4 3/3/3 2/2/2
f 4/4/4 5/5/5 3/3/3
f 6/6/6 3/3/3 5/5/5
f 5/5/5 7/7/7 6/6/6
f 5/5/5 8/8/8 7/7/7
f 4/4/4 8/8/8 5/5/5
f 9/9/9 7/7/7 8/8/8
f 9/9/9 8/8/8 10/10/10
f 11/11/11 10/10/10 8/8/8
f 11/11/11 8/8/8 12/12/12
f 4/4/4 12/12/12 8/8/8
f 7/7/7 13/13/13 6/6/6
f 7/7/7 14/14/14 13/13/13
f 9/9/9 14/14/14 7/7/7
f 15/15/15 13/13/13 14/14/14
f 15/15/15 14/14/14 16/16/16
f 17/17/17 16/16/16 14/14/14
f 17/17/17 14/14/14 18/18/18
f 9/9/9 18/18/18 14/14/14
f 17/17/17 19/19/19 16/16/16
f 15/15/15 16/16/16 19/19/19
f 17/17/17 20/20/20 19/19/19
f 21/21/21 19/19/19 20/20/20
f 21/21/21 22/22/22 19/19/19
f 23/23/23 19/19/19 22/22/22
f 15/15/15 19/19/19 23/23/23
f 23/23/23 22/22/22 24/24/24
f 22/22/22 25/25/25 24/24/24
f 24/24/24 25/25/25 26/26/26
f 27/27/27 26/26/26 25/25/25
f 27/27/27 28/28/28 26/26/26
f 29/29/29 26/26/26 28/28/28
f 27/27/27 25/25/25 30/30/30
f 22/22/22 30/30/30 25/25/25
f 21/21/21 30/30/30 22/22/22
f 27/27/27 30/30/30 31/31/31
f 32/32/32 31/31/31 30/30/30
f 32/32/32 30/30/30 33/33/33
f 21/21/21 33/33/33 30/30/30
f 32/32/32 33/33/33 34/34/34
f 21/21/21 34/34/34 33/33/33
f 32/32/32 34/34/34 35/35/35
f 21/21/21 36/36/36 34/34/34
f 37/37/37 34/34/34 36/36/36
f 37/37/37 36/36/36 38/38/38
f 39/39/39 37/37/37 38/38/38
f 40/40/40 39/39/39 38/38/38
f 41/41/41 40/40/40 38/38/38
f 36/36/36 41/41/41 38/38/38
f 41/41/41 42/42/42 40/40/40
f 43/43/43 40/40/40 42/42/42
f 43/43/43 42/42/42 44/44/44
f 43/43/43 44/44/44 45/45/45
f 11/11/11 45/45/45 44/44/44
f 11/11/11 44/44/44 42/42/42
f 11/11/11 12/12/12 45/45/45
f 4/4/4 45/45/45 12/12/12
f 4/4/4 46/46/46 45/45/45
f 47/47/47 45/45/45 46/46/46
f 43/43/43 45/45/45 47/47/47
f 43/43/43 47/47/47 48/48/48
f 43/43/43 48/48/48 49/49/49
f 50/50/50 49/49/49 48/48/48
f 50/50/50 48/48/48 51/51/51
f 52/52/52 48/48/48 47/47/47
f 52/52/52 47/47/47 53/53/53
f 47/47/47 46/46/46 53/53/53
f 54/54/54 52/52/52 53/53/53
f 55/55/55 54/54/54 53/53/53
f 46/46/46 55/55/55 53/53/53
f 55/55/55 56/56/56 54/54/54
f 57/57/57 54/54/54 56/56/56
f 57/57/57 56/56/56 58/58/58
f 59/59/59 58/58/58 56/56/56
f 59/59/59 56/56/56 60/60/60
f 61/61/61 56/56/56 55/55/55
f 61/61/61 60/60/60 56/56/56
f 54/54/54 62/62/62 52/52/52
f 57/57/57 62/62/62 54/54/54
f 63/63/63 52/52/52 62/62/62
f 63/63/63 48/48/48 52/52/52
f 63/63/63 51/51/51 48/48/48
f 63/63/63 62/62/62 64/64/64
f 65/65/65 64/64/64 62/62/62
f 65/65/65 62/62/62 66/66/66
f 57/57/57 66/66/66 62/62/62
f 61/61/61 55/55/55 67/67/67
f 61/61/61 67/67/67 68/68/68
f 1/1/1 68/68/68 67/67/67
f 1/1/1 67/67/67 2/2/2
f 46/46/46 67/67/67 55/55/55
f 4/4/4 67/67/67 46/46/46
f 4/4/4 2/2/2 67/67/67
f 65/65/65 69/69/69 64/64/64
f 63/63/63 64/64/64 69/69/69
f 65/65/65 70/70/70 69/69/69
f 71/71/71 69/69/69 70/70/70
f 71/71/71 72/72/72 69/69/69
f 73/73/73 69/69/69 72/72/72
f 63/63/63 69/69/69 73/73/73
f 63/63/63 73/73/73 74/74/74
f 63/63/63 74/74/74 51/51/51
f 50/50/50 51/51/51 74/74/74
f 50/50/50 74/74/74 75/75/75
f 50/50/50 75/75/75 76/76/76
f 50/50/50 76/76/76 49/49/49
f 77/77/77 76/76/76 75/75/75
f 77/77/77 75/75/75 74/74/74
f 77/77/77 39/39/39 76/76/76
f 40/40/40 76/76/76 39/39/39
f 43/43/43 76/76/76 40/40/40
f 43/43/43 49/49/49 76/76/76
f 77/77/77 78/78/78 39/39/39
f 39/39/39 78/78/78 37/37/37
f 79/79/79 37/37/37 78/78/78
f 79/79/79 78/78/78 80/80/80
f 81/81/81 80/80/80 78/78/78
f 81/81/81 78/78/78 82/82/82
f 77/77/77 82/82/82 78/78/78
f 79/79/79 34/34/34 37/37/37
f 79/79/79 35/35/35 34/34/34
f 81/81/81 83/83/83 80/80/80
f 79/79/79 80/80/80 83/83/83
f 81/81/81 84/84/84 83/83/83
f 85/85/85 83/83/83 84/84/84
f 85/85/85 86/86/86 83/83/83
f 87/87/87 83/83/83 86/86/86
f 79/79/79 83/83/83 87/87/87
f 87/87/87 86/86/86 88/88/88
f 86/86/86 89/89/89 88/88/88
f 86/86/86 90/90/90 89/89/89
f 85/85/85 90/90/90 86/86/86
f 91/91/91 89/89/89 90/90/90
f 91/91/91 90/90/90 92/92/92
f 93/93/93 92/92/92 90/90/90
f 93/93/93 90/90/90 94/94/94
f 85/85/85 94/94/94 90/90/90
f 89/89/89 95/95/95 88/88/88
f 89/89/89 96/96/96 95/95/95
f 91/91/91 96/96/96 89/89/89
f 97/97/97 95/95/95 96/96/96
f 97/97/97 96/96/96 98/98/98
f 99/99/99 98/98/98 96/96/96
f 99/99/99 96/96/96 100/100/100
f 91/91/91 100/100/100 96/96/96
f 95/95/95 101/101/101 88/88/88
f 101/101/101 87/87/87 88/88/88
f 95/95/95 102/102/102 101/101/101
f 97/97/97 102/102/102 95/95/95
f 27/27/27 101/101/101 102/102/102
f 27/27/27 102/102/102 28/28/28
f 29/29/29 28/28/28 102/102/102
f 29/29/29 102/102/102 103/103/103
f 97/97/97 103/103/103 102/102/102
f 27/27/27 104/104/104 101/101/101
f 101/101/101 104/104/104 87/87/87
f 79/79/79 87/87/87 104/104/104
f 79/79/79 104/104/104 35/35/35
f 32/32/32 35/35/35 104/104/104
f 32/32/32 104/104/104 31/31/31
f 27/27/27 31/31/31 104/104/104
f 99/99/99 100/100/100 105/105/105
f 91/91/91 105/105/105 100/100/100
f 91/91/91 106/106/106 105/105/105
f 107/107/107 105/105/105 106/106/106
f 106/106/106 108/108/108 107/107/107
f 106/106/106 109/109/109 108/108/108
f 91/91/91 109/109/109 106/106/106
f 110/110/110 108/108/108 109/109/109
f 110/110/110 109/109/109 111/111/111
f 93/93/93 111/111/111 109/109/109
f 93/93/93 109/109/109 92/92/92
f 91/91/91 92/92/92 109/109/109
f 108/108/108 112/112/112 107/107/107
f 108/108/108 113/113/113 112/112/112
f 110/110/110 113/113/113 108/108/108
f 114/114/114 112/112/112 113/113/113
f 114/114/114 113/113/113 115/115/115
f 116/116/116 115/115/115 113/113/113
f 116/116/116 113/113/113 117/117/117
f 110/110/110 117/117/117 113/113/113
f 93/93/93 118/118/118 111/111/111
f 110/110/110 111/111/111 118/118/118
f 93/93/93 94/94/94 118/118/118
f 85/85/85 118/118/118 94/94/94
f 85/85/85 119/119/119 118/118/118
f 120/120/120 118/118/118 119/119/119
f 110/110/110 118/118/118 120/120/120
f 120/120/120 119/119/119 121/121/121
f 119/119/119 122/122/122 121/121/121
f 119/119/119 123/123/123 122/122/122
f 85/85/85 123/123/123 119/119/119
f 77/77/77 122/122/122 123/123/123
f 77/77/77 123/123/123 82/82/82
f 81/81/81 82/82/82 123/123/123
f 81/81/81 123/123/123 84/84/84
f 85/85/85 84/84/84 123/123/123
f 122/122/122 73/73/73 121/121/121
f 122/122/122 74/74/74 73/73/73
f 77/77/77 74/74/74 122/122/122
f 73/73/73 72/72/72 121/121/121
f 72/72/72 120/120/120 121/121/121
f 72/72/72 124/124/124 120/120/120
f 110/110/110 120/120/120 124/124/124
f 110/110/110 124/124/124 117/117/117
f 116/116/116 117/117/117 124/124/124
f 116/116/116 124/124/124 125/125/125
f 71/71/71 124/124/124 72/72/72
f 71/71/71 125/125/125 124/124/124
f 116/116/116 125/125/125 126/126/126
f 71/71/71 126/126/126 125/125/125
f 116/116/116 126/126/126 115/115/115
f 71/71/71 127/127/127 126/126/126
f 71/71/71 128/128/128 127/127/127
f 127/127/127 128/128/128 129/129/129
f 57/57/57 129/129/129 128/128/128
f 57/57/57 128/128/128 66/66/66
f 65/65/65 66/66/66 128/128/128
f 65/65/65 128/128/128 70/70/70
f 71/71/71 70/70/70 128/128/128
f 127/127/127 129/129/129 130/130/130
f 130/130/130 129/129/129 131/131/131
f 57/57/57 131/131/131 129/129/129
f 57/57/57 58/58/58 131/131/131
f 59/59/59 131/131/131 58/58/58
f 132/132/132 127/127/127 130/130/130
f 132/132/132 126/126/126 127/127/127
f 114/114/114 126/126/126 132/132/132
f 114/114/114 115/115/115 126/126/126
f 11/11/11 42/42/42 10/10/10
f 9/9/9 10/10/10 42/42/42
f 9/9/9 42/42/42 41/41/41
f 9/9/9 41/41/41 133/133/133
f 9/9/9 133/133/133 18/18/18
f 17/17/17 18/18/18 133/133/133
f 17/17/17 133/133/133 20/20/20
f 36/36/36 133/133/133 41/41/41
f 21/21/21 133/133/133 36/36/36
f 21/21/21 20/20/20 133/133/133
f 134/134/134 135/135/135 136/136/136
f 137/137/137 135/135/135 134/134/134
f 138/138/138 135/135/135 137/137/137
f 139/139/139 135/135/135 138/138/138
f 140/140/140 135/135/135 139/139/139
f 141/141/141 135/135/135 140/140/140
f 142/142/142 135/135/135 141/141/141
f 143/143/143 135/135/135 142/142/142
f 144/144/144 135/135/135 143/143/143
f 145/145/145 135/135/135 144/144/144
f 146/146/146 135/135/135 145/145/145
f 147/147/147 135/135/135 146/146/146
f 148/148/148 135/135/135 147/147/147
f 149/149/149 135/135/135 148/148/148
f 150/150/150 135/135/135 149/149/149
f 151/151/151 135/135/135 150/150/150
f 152/152/152 135/135/135 151/151/151
f 153/153/153 135/135/135 152/152/152
f 154/154/154 135/135/135 153/153/153
f 155/155/155 135/135/135 154/154/154
f 156/156/156 135/135/135 155/155/155
f 157/157/157 135/135/135 156/156/156
f 158/158/158 135/135/135 157/157/157
f 136/136/136 135/135/135 158/158/158
