# Blender v2.82 (sub 7) OBJ File: ''
# www.blender.org
mtllib sea.mtl
o Sea
v -10.678140 -5.214349 10.499460
v 10.346900 -5.214346 -10.525580
v -10.678130 -5.214346 -10.525580
v 10.346900 -5.214349 10.499460
v -34.734299 -5.214350 11.160060
v -26.858391 -5.214352 26.498751
v -34.734299 -5.214346 -11.302030
v -26.858391 -5.214344 -26.640730
v -12.905150 -5.214342 -34.854469
v -9.908471 -5.214354 35.583679
v 9.331178 -5.214354 35.583679
v 26.281071 -5.214352 26.498751
v 36.007450 -5.214350 13.381460
v 36.007450 -5.214345 -13.523440
v 26.281071 -5.214343 -26.640730
v 12.327840 -5.214342 -34.854469
vt 0.498050 0.784267
vt 0.501900 0.215283
vt 0.782996 0.501624
vt 0.216954 0.497925
vt 0.747692 0.949686
vt 0.499074 0.993023
vt 0.956140 0.742922
vt 0.992210 0.503873
vt 0.968035 0.270805
vt 0.227374 0.942017
vt 0.051242 0.762597
vt 0.012600 0.497471
vt 0.015996 0.261613
vt 0.265674 0.013952
vt 0.505736 0.008320
vt 0.737036 0.035495
vn -0.0000 1.0000 0.0000
usemtl Default_OBJ
s 1
f 1/1/1 2/2/1 3/3/1
f 1/1/1 4/4/1 2/2/1
f 1/1/1 3/3/1 5/5/1
f 6/6/1 1/1/1 5/5/1
f 3/3/1 7/7/1 5/5/1
f 3/3/1 8/8/1 7/7/1
f 8/8/1 3/3/1 9/9/1
f 3/3/1 2/2/1 9/9/1
f 1/1/1 6/6/1 10/10/1
f 1/1/1 10/10/1 11/11/1
f 4/4/1 1/1/1 11/11/1
f 12/12/1 4/4/1 11/11/1
f 4/4/1 12/12/1 13/13/1
f 4/4/1 13/13/1 14/14/1
f 2/2/1 4/4/1 14/14/1
f 15/15/1 2/2/1 14/14/1
f 2/2/1 15/15/1 16/16/1
f 2/2/1 16/16/1 9/9/1
